<svg version="1.1" xmlns="http://www.w3.org/2000/svg" xmlns:xlink="http://www.w3.org/1999/xlink" width="300" height="140"><defs/><g><g transform="translate(-22,-54) scale(1,1)"><rect fill="#C0C0C0" stroke="none" x="39" y="71" width="157.26220703125" height="48" opacity="0.2"/></g><g transform="translate(-22,-54) scale(1,1)"><rect fill="#ffffff" stroke="none" x="32" y="64" width="157.26220703125" height="48"/></g><g transform="translate(-22,-54) scale(1,1)"><path fill="none" stroke="#000000" d="M 32 64 L 189.26220703125 64 L 189.26220703125 112 L 32 112 L 32 64 Z Z" stroke-miterlimit="10"/></g><g transform="translate(-22,-54) scale(1,1)"><g><path fill="none" stroke="none"/><text fill="#000000" stroke="none" font-family="Arial" font-size="13px" font-style="normal" font-weight="normal" text-decoration="none" x="78.631103515625" y="81.5">«interface»</text></g></g><g transform="translate(-22,-54) scale(1,1)"><g><path fill="none" stroke="none"/><text fill="#000000" stroke="none" font-family="Arial" font-size="13px" font-style="normal" font-weight="bold" text-decoration="none" x="45.131103515625" y="96.5">PresentationsGateway</text></g></g><g transform="translate(-22,-54) scale(1,1)"><rect fill="#C0C0C0" stroke="none" x="39" y="143" width="280" height="48" opacity="0.2"/></g><g transform="translate(-22,-54) scale(1,1)"><rect fill="#ffffff" stroke="none" x="32" y="136" width="280" height="48"/></g><g transform="translate(-22,-54) scale(1,1)"><path fill="none" stroke="#000000" d="M 32 136 L 312 136 L 312 184 L 32 184 L 32 136 Z Z" stroke-miterlimit="10"/></g><g transform="translate(-22,-54) scale(1,1)"><g><path fill="none" stroke="none"/><text fill="#000000" stroke="none" font-family="Arial" font-size="13px" font-style="normal" font-weight="normal" text-decoration="none" x="140" y="153.5">«interface»</text></g></g><g transform="translate(-22,-54) scale(1,1)"><g><path fill="none" stroke="none"/><text fill="#000000" stroke="none" font-family="Arial" font-size="13px" font-style="normal" font-weight="bold" text-decoration="none" x="70" y="168.5">PresentationMediaContentGateway</text></g></g></g></svg>