<svg version="1.1" xmlns="http://www.w3.org/2000/svg" xmlns:xlink="http://www.w3.org/1999/xlink" width="540" height="68"><defs/><g><g transform="translate(-38,-54) scale(1,1)"><rect fill="#C0C0C0" stroke="none" x="55" y="71" width="157.26220703125" height="48" opacity="0.2"/></g><g transform="translate(-38,-54) scale(1,1)"><rect fill="#ffffff" stroke="none" x="48" y="64" width="157.26220703125" height="48"/></g><g transform="translate(-38,-54) scale(1,1)"><path fill="none" stroke="#000000" d="M 48 64 L 205.26220703125 64 L 205.26220703125 112 L 48 112 L 48 64 Z Z" stroke-miterlimit="10"/></g><g transform="translate(-38,-54) scale(1,1)"><g><path fill="none" stroke="none"/><text fill="#000000" stroke="none" font-family="Arial" font-size="13px" font-style="normal" font-weight="normal" text-decoration="none" x="94.631103515625" y="81.5">«interface»</text></g></g><g transform="translate(-38,-54) scale(1,1)"><g><path fill="none" stroke="none"/><text fill="#000000" stroke="none" font-family="Arial" font-size="13px" font-style="normal" font-weight="bold" text-decoration="none" x="61.131103515625" y="96.5">PresentationsGateway</text></g></g><g transform="translate(-38,-54) scale(1,1)"><rect fill="#C0C0C0" stroke="none" x="295" y="71" width="280" height="48" opacity="0.2"/></g><g transform="translate(-38,-54) scale(1,1)"><rect fill="#ffffff" stroke="none" x="288" y="64" width="280" height="48"/></g><g transform="translate(-38,-54) scale(1,1)"><path fill="none" stroke="#000000" d="M 288 64 L 568 64 L 568 112 L 288 112 L 288 64 Z Z" stroke-miterlimit="10"/></g><g transform="translate(-38,-54) scale(1,1)"><g><path fill="none" stroke="none"/><text fill="#000000" stroke="none" font-family="Arial" font-size="13px" font-style="normal" font-weight="normal" text-decoration="none" x="396" y="81.5">«interface»</text></g></g><g transform="translate(-38,-54) scale(1,1)"><g><path fill="none" stroke="none"/><text fill="#000000" stroke="none" font-family="Arial" font-size="13px" font-style="normal" font-weight="bold" text-decoration="none" x="326" y="96.5">PresentationMediaContentGateway</text></g></g></g></svg>