<svg version="1.1" xmlns="http://www.w3.org/2000/svg" xmlns:xlink="http://www.w3.org/1999/xlink" width="1090" height="484"><defs/><g><g transform="translate(-14,-14) scale(1,1)"><rect fill="#C0C0C0" stroke="none" x="31" y="199" width="497" height="98" opacity="0.2"/></g><g transform="translate(-14,-14) scale(1,1)"><rect fill="#ffffff" stroke="none" x="24" y="192" width="497" height="98"/></g><g transform="translate(-14,-14) scale(1,1)"><path fill="none" stroke="#000000" d="M 24 192 L 521 192 L 521 290 L 24 290 L 24 192 Z Z" stroke-miterlimit="10"/></g><g transform="translate(-14,-14) scale(1,1)"><path fill="none" stroke="#000000" d="M 24 230 L 521 230" stroke-miterlimit="10"/></g><g transform="translate(-14,-14) scale(1,1)"><path fill="none" stroke="#000000" d="M 24 253 L 521 253" stroke-miterlimit="10"/></g><g transform="translate(-14,-14) scale(1,1)"><g><path fill="none" stroke="none"/><text fill="#000000" stroke="none" font-family="Arial" font-size="13px" font-style="normal" font-weight="normal" text-decoration="none" x="240.5" y="209.5">«interface»</text></g></g><g transform="translate(-14,-14) scale(1,1)"><g><path fill="none" stroke="none"/><text fill="#000000" stroke="none" font-family="Arial" font-size="13px" font-style="italic" font-weight="bold" text-decoration="none" x="183" y="224.5">ProvidePresentationsInteractor</text></g></g><g transform="translate(-14,-14) scale(1,1)"><g><path fill="none" stroke="none"/><text fill="#000000" stroke="none" font-family="Arial" font-size="13px" font-style="normal" font-weight="normal" text-decoration="none" x="29" y="247.5">+gateway: PresentationsGateway</text></g></g><g transform="translate(-14,-14) scale(1,1)"><g><path fill="none" stroke="none"/><text fill="#000000" stroke="none" font-family="Arial" font-size="13px" font-style="normal" font-weight="normal" text-decoration="none" x="29" y="270.5">+providePresentations(completionBlock: ProvidePresentationsResult, range: Range)</text></g></g><g transform="translate(-14,-14) scale(1,1)"><g><path fill="none" stroke="none"/><text fill="#000000" stroke="none" font-family="Arial" font-size="13px" font-style="normal" font-weight="normal" text-decoration="none" x="29" y="285.5">+initWithGateway(gateway: PresentationsGateway)</text></g></g><g transform="translate(-14,-14) scale(1,1)"><rect fill="#C0C0C0" stroke="none" x="495" y="31" width="120" height="48" opacity="0.2"/></g><g transform="translate(-14,-14) scale(1,1)"><rect fill="#ffffff" stroke="none" x="488" y="24" width="120" height="48"/></g><g transform="translate(-14,-14) scale(1,1)"><path fill="none" stroke="#000000" d="M 488 24 L 608 24 L 608 72 L 488 72 L 488 24 Z Z" stroke-miterlimit="10"/></g><g transform="translate(-14,-14) scale(1,1)"><g><path fill="none" stroke="none"/><text fill="#000000" stroke="none" font-family="Arial" font-size="13px" font-style="normal" font-weight="normal" text-decoration="none" x="516" y="41.5">«interface»</text></g></g><g transform="translate(-14,-14) scale(1,1)"><g><path fill="none" stroke="none"/><text fill="#000000" stroke="none" font-family="Arial" font-size="13px" font-style="italic" font-weight="bold" text-decoration="none" x="505.5" y="56.5">InteractorBase</text></g></g><g transform="translate(-14,-14) scale(1,1)"><path fill="none" stroke="#000000" d="M 344 191 L 512 73" stroke-miterlimit="10"/></g><g transform="translate(-14,-14) scale(1,1)"><path fill="#FFFFFF" stroke="none" d="M 500.2064532548092 91.57181345935287 L 512 73 L 490.52844788619507 77.79295835827507"/></g><g transform="translate(-14,-14) scale(1,1)"><path fill="none" stroke="#000000" d="M 500.2064532548092 91.57181345935287 L 512 73 L 490.52844788619507 77.79295835827507 L 500.2064532548092 91.57181345935287" stroke-miterlimit="10"/></g><g transform="translate(-14,-14) scale(1,1)"><rect fill="#C0C0C0" stroke="none" x="239" y="367" width="638" height="128" opacity="0.2"/></g><g transform="translate(-14,-14) scale(1,1)"><rect fill="#ffffff" stroke="none" x="232" y="360" width="638" height="128"/></g><g transform="translate(-14,-14) scale(1,1)"><path fill="none" stroke="#000000" d="M 232 360 L 870 360 L 870 488 L 232 488 L 232 360 Z Z" stroke-miterlimit="10"/></g><g transform="translate(-14,-14) scale(1,1)"><path fill="none" stroke="#000000" d="M 232 398 L 870 398" stroke-miterlimit="10"/></g><g transform="translate(-14,-14) scale(1,1)"><path fill="none" stroke="#000000" d="M 232 421 L 870 421" stroke-miterlimit="10"/></g><g transform="translate(-14,-14) scale(1,1)"><g><path fill="none" stroke="none"/><text fill="#000000" stroke="none" font-family="Arial" font-size="13px" font-style="normal" font-weight="normal" text-decoration="none" x="519" y="377.5">«interface»</text></g></g><g transform="translate(-14,-14) scale(1,1)"><g><path fill="none" stroke="none"/><text fill="#000000" stroke="none" font-family="Arial" font-size="13px" font-style="italic" font-weight="bold" text-decoration="none" x="421.5" y="392.5">ProvidePresentationMediaContentsInteractor</text></g></g><g transform="translate(-14,-14) scale(1,1)"><g><path fill="none" stroke="none"/><text fill="#000000" stroke="none" font-family="Arial" font-size="13px" font-style="normal" font-weight="normal" text-decoration="none" x="237" y="415.5">+gateway: PresentationMediaContentGateway</text></g></g><g transform="translate(-14,-14) scale(1,1)"><g><path fill="none" stroke="none"/><text fill="#000000" stroke="none" font-family="Arial" font-size="13px" font-style="normal" font-weight="normal" text-decoration="none" x="237" y="438.5">+initWithGateway(gateway: PresentationMediaContentGateway)</text></g></g><g transform="translate(-14,-14) scale(1,1)"><g><path fill="none" stroke="none"/><text fill="#000000" stroke="none" font-family="Arial" font-size="13px" font-style="normal" font-weight="normal" text-decoration="none" x="237" y="453.5">+providePresentationLocalContent(presentationsIDs: String[1..*], result: ProvidePresentationContentsResult)</text></g></g><g transform="translate(-14,-14) scale(1,1)"><path fill="none" stroke="#000000" d="M 344 191 L 512 73" stroke-miterlimit="10"/></g><g transform="translate(-14,-14) scale(1,1)"><path fill="#FFFFFF" stroke="none" d="M 500.2064532548092 91.57181345935287 L 512 73 L 490.52844788619507 77.79295835827507"/></g><g transform="translate(-14,-14) scale(1,1)"><path fill="none" stroke="#000000" d="M 500.2064532548092 91.57181345935287 L 512 73 L 490.52844788619507 77.79295835827507 L 500.2064532548092 91.57181345935287" stroke-miterlimit="10"/></g><g transform="translate(-14,-14) scale(1,1)"><path fill="none" stroke="#000000" d="M 550 359 L 548 73" stroke-miterlimit="10"/></g><g transform="translate(-14,-14) scale(1,1)"><path fill="#FFFFFF" stroke="none" d="M 556.560961502587 93.26597982213602 L 548 73 L 539.7233021723341 93.38372569157833"/></g><g transform="translate(-14,-14) scale(1,1)"><path fill="none" stroke="#000000" d="M 556.560961502587 93.26597982213602 L 548 73 L 539.7233021723341 93.38372569157833 L 556.560961502587 93.26597982213602" stroke-miterlimit="10"/></g><g transform="translate(-14,-14) scale(1,1)"><rect fill="#C0C0C0" stroke="none" x="623" y="207" width="478" height="108" opacity="0.2"/></g><g transform="translate(-14,-14) scale(1,1)"><rect fill="#ffffff" stroke="none" x="616" y="200" width="478" height="108"/></g><g transform="translate(-14,-14) scale(1,1)"><path fill="none" stroke="#000000" d="M 616 200 L 1094 200 L 1094 308 L 616 308 L 616 200 Z Z" stroke-miterlimit="10"/></g><g transform="translate(-14,-14) scale(1,1)"><path fill="none" stroke="#000000" d="M 616 238 L 1094 238" stroke-miterlimit="10"/></g><g transform="translate(-14,-14) scale(1,1)"><path fill="none" stroke="#000000" d="M 616 261 L 1094 261" stroke-miterlimit="10"/></g><g transform="translate(-14,-14) scale(1,1)"><path fill="none" stroke="#000000" d="M 616 299 L 1094 299" stroke-miterlimit="10"/></g><g transform="translate(-14,-14) scale(1,1)"><g><path fill="none" stroke="none"/><text fill="#000000" stroke="none" font-family="Arial" font-size="13px" font-style="normal" font-weight="normal" text-decoration="none" x="823" y="217.5">«interface»</text></g></g><g transform="translate(-14,-14) scale(1,1)"><g><path fill="none" stroke="none"/><text fill="#000000" stroke="none" font-family="Arial" font-size="13px" font-style="italic" font-weight="bold" text-decoration="none" x="778.5" y="232.5">FlagPresentationInteractor</text></g></g><g transform="translate(-14,-14) scale(1,1)"><g><path fill="none" stroke="none"/><text fill="#000000" stroke="none" font-family="Arial" font-size="13px" font-style="normal" font-weight="normal" text-decoration="none" x="621" y="255.5">+gateway: PresentationsGateway</text></g></g><g transform="translate(-14,-14) scale(1,1)"><g><path fill="none" stroke="none"/><text fill="#000000" stroke="none" font-family="Arial" font-size="13px" font-style="normal" font-weight="normal" text-decoration="none" x="621" y="278.5">+initWithGateway(gateway: PresentationsGateway)</text></g></g><g transform="translate(-14,-14) scale(1,1)"><g><path fill="none" stroke="none"/><text fill="#000000" stroke="none" font-family="Arial" font-size="13px" font-style="normal" font-weight="normal" text-decoration="none" x="621" y="293.5">+flagPresentation(isFavorite: Boolean, completionBlock: FlagPresentationResult)</text></g></g><g transform="translate(-14,-14) scale(1,1)"><path fill="none" stroke="#000000" d="M 773 199 L 585 73" stroke-miterlimit="10"/></g><g transform="translate(-14,-14) scale(1,1)"><path fill="#FFFFFF" stroke="none" d="M 606.5712248200541 77.32229797245446 L 585 73 L 597.1968331421284 91.3094855553912"/></g><g transform="translate(-14,-14) scale(1,1)"><path fill="none" stroke="#000000" d="M 606.5712248200541 77.32229797245446 L 585 73 L 597.1968331421284 91.3094855553912 L 606.5712248200541 77.32229797245446" stroke-miterlimit="10"/></g></g></svg>