<svg version="1.1" xmlns="http://www.w3.org/2000/svg" xmlns:xlink="http://www.w3.org/1999/xlink" width="859" height="484"><defs/><g><g transform="translate(-14,-14) scale(1,1)"><rect fill="#C0C0C0" stroke="none" x="31" y="199" width="490" height="98" opacity="0.2"/></g><g transform="translate(-14,-14) scale(1,1)"><rect fill="#ffffff" stroke="none" x="24" y="192" width="490" height="98"/></g><g transform="translate(-14,-14) scale(1,1)"><path fill="none" stroke="#000000" d="M 24 192 L 514 192 L 514 290 L 24 290 L 24 192 Z Z" stroke-miterlimit="10"/></g><g transform="translate(-14,-14) scale(1,1)"><path fill="none" stroke="#000000" d="M 24 230 L 514 230" stroke-miterlimit="10"/></g><g transform="translate(-14,-14) scale(1,1)"><path fill="none" stroke="#000000" d="M 24 253 L 514 253" stroke-miterlimit="10"/></g><g transform="translate(-14,-14) scale(1,1)"><g><path fill="none" stroke="none"/><text fill="#000000" stroke="none" font-family="Arial" font-size="13px" font-style="normal" font-weight="normal" text-decoration="none" x="237" y="209.5">«interface»</text></g></g><g transform="translate(-14,-14) scale(1,1)"><g><path fill="none" stroke="none"/><text fill="#000000" stroke="none" font-family="Arial" font-size="13px" font-style="italic" font-weight="bold" text-decoration="none" x="179.5" y="224.5">ProvidePresentationsInteractor</text></g></g><g transform="translate(-14,-14) scale(1,1)"><g><path fill="none" stroke="none"/><text fill="#000000" stroke="none" font-family="Arial" font-size="13px" font-style="normal" font-weight="normal" text-decoration="none" x="29" y="247.5">+gateway: PresentationsGateway</text></g></g><g transform="translate(-14,-14) scale(1,1)"><g><path fill="none" stroke="none"/><text fill="#000000" stroke="none" font-family="Arial" font-size="13px" font-style="normal" font-weight="normal" text-decoration="none" x="29" y="270.5">+providePresentations(completionBlock: ProvidePresentationResult, range: Range)</text></g></g><g transform="translate(-14,-14) scale(1,1)"><g><path fill="none" stroke="none"/><text fill="#000000" stroke="none" font-family="Arial" font-size="13px" font-style="normal" font-weight="normal" text-decoration="none" x="29" y="285.5">+initWithGateway(gateway: PresentationsGateway)</text></g></g><g transform="translate(-14,-14) scale(1,1)"><rect fill="#C0C0C0" stroke="none" x="495" y="31" width="120" height="48" opacity="0.2"/></g><g transform="translate(-14,-14) scale(1,1)"><rect fill="#ffffff" stroke="none" x="488" y="24" width="120" height="48"/></g><g transform="translate(-14,-14) scale(1,1)"><path fill="none" stroke="#000000" d="M 488 24 L 608 24 L 608 72 L 488 72 L 488 24 Z Z" stroke-miterlimit="10"/></g><g transform="translate(-14,-14) scale(1,1)"><g><path fill="none" stroke="none"/><text fill="#000000" stroke="none" font-family="Arial" font-size="13px" font-style="normal" font-weight="normal" text-decoration="none" x="516" y="41.5">«interface»</text></g></g><g transform="translate(-14,-14) scale(1,1)"><g><path fill="none" stroke="none"/><text fill="#000000" stroke="none" font-family="Arial" font-size="13px" font-style="italic" font-weight="bold" text-decoration="none" x="505.5" y="56.5">InteractorBase</text></g></g><g transform="translate(-14,-14) scale(1,1)"><path fill="none" stroke="#000000" d="M 341 191 L 512 73" stroke-miterlimit="10"/></g><g transform="translate(-14,-14) scale(1,1)"><path fill="#FFFFFF" stroke="none" d="M 500.0527237439204 91.47329396888699 L 512 73 L 490.48940850636455 77.61459137886962"/></g><g transform="translate(-14,-14) scale(1,1)"><path fill="none" stroke="#000000" d="M 500.0527237439204 91.47329396888699 L 512 73 L 490.48940850636455 77.61459137886962 L 500.0527237439204 91.47329396888699" stroke-miterlimit="10"/></g><g transform="translate(-14,-14) scale(1,1)"><rect fill="#C0C0C0" stroke="none" x="239" y="367" width="631" height="128" opacity="0.2"/></g><g transform="translate(-14,-14) scale(1,1)"><rect fill="#ffffff" stroke="none" x="232" y="360" width="631" height="128"/></g><g transform="translate(-14,-14) scale(1,1)"><path fill="none" stroke="#000000" d="M 232 360 L 863 360 L 863 488 L 232 488 L 232 360 Z Z" stroke-miterlimit="10"/></g><g transform="translate(-14,-14) scale(1,1)"><path fill="none" stroke="#000000" d="M 232 398 L 863 398" stroke-miterlimit="10"/></g><g transform="translate(-14,-14) scale(1,1)"><path fill="none" stroke="#000000" d="M 232 421 L 863 421" stroke-miterlimit="10"/></g><g transform="translate(-14,-14) scale(1,1)"><g><path fill="none" stroke="none"/><text fill="#000000" stroke="none" font-family="Arial" font-size="13px" font-style="normal" font-weight="normal" text-decoration="none" x="515.5" y="377.5">«interface»</text></g></g><g transform="translate(-14,-14) scale(1,1)"><g><path fill="none" stroke="none"/><text fill="#000000" stroke="none" font-family="Arial" font-size="13px" font-style="italic" font-weight="bold" text-decoration="none" x="421.5" y="392.5">ProvidePresentationMediaContentInteractor</text></g></g><g transform="translate(-14,-14) scale(1,1)"><g><path fill="none" stroke="none"/><text fill="#000000" stroke="none" font-family="Arial" font-size="13px" font-style="normal" font-weight="normal" text-decoration="none" x="237" y="415.5">+gateway: PresentationMediaContentGateway</text></g></g><g transform="translate(-14,-14) scale(1,1)"><g><path fill="none" stroke="none"/><text fill="#000000" stroke="none" font-family="Arial" font-size="13px" font-style="normal" font-weight="normal" text-decoration="none" x="237" y="438.5">+initWithGateway(gateway: PresentationMediaContentGateway)</text></g></g><g transform="translate(-14,-14) scale(1,1)"><g><path fill="none" stroke="none"/><text fill="#000000" stroke="none" font-family="Arial" font-size="13px" font-style="normal" font-weight="normal" text-decoration="none" x="237" y="453.5">+providePresentationLocalContent(presentationsIDs: String[1..*], result: ProvidePresentationContentResult)</text></g></g><g transform="translate(-14,-14) scale(1,1)"><path fill="none" stroke="#000000" d="M 341 191 L 512 73" stroke-miterlimit="10"/></g><g transform="translate(-14,-14) scale(1,1)"><path fill="#FFFFFF" stroke="none" d="M 500.0527237439204 91.47329396888699 L 512 73 L 490.48940850636455 77.61459137886962"/></g><g transform="translate(-14,-14) scale(1,1)"><path fill="none" stroke="#000000" d="M 500.0527237439204 91.47329396888699 L 512 73 L 490.48940850636455 77.61459137886962 L 500.0527237439204 91.47329396888699" stroke-miterlimit="10"/></g><g transform="translate(-14,-14) scale(1,1)"><path fill="none" stroke="#000000" d="M 547 359 L 548 73" stroke-miterlimit="10"/></g><g transform="translate(-14,-14) scale(1,1)"><path fill="#FFFFFF" stroke="none" d="M 556.3479168269591 93.354662479397 L 548 73 L 539.5099487291791 93.29578846506911"/></g><g transform="translate(-14,-14) scale(1,1)"><path fill="none" stroke="#000000" d="M 556.3479168269591 93.354662479397 L 548 73 L 539.5099487291791 93.29578846506911 L 556.3479168269591 93.354662479397" stroke-miterlimit="10"/></g></g></svg>