<svg version="1.1" xmlns="http://www.w3.org/2000/svg" xmlns:xlink="http://www.w3.org/1999/xlink" width="423" height="382"><defs/><g><g transform="translate(-70,-54) scale(1,1)"><rect fill="#C0C0C0" stroke="none" x="87" y="335" width="403" height="98" opacity="0.2"/></g><g transform="translate(-70,-54) scale(1,1)"><rect fill="#ffffff" stroke="none" x="80" y="328" width="403" height="98"/></g><g transform="translate(-70,-54) scale(1,1)"><path fill="none" stroke="#000000" d="M 80 328 L 483 328 L 483 426 L 80 426 L 80 328 Z Z" stroke-miterlimit="10"/></g><g transform="translate(-70,-54) scale(1,1)"><path fill="none" stroke="#000000" d="M 80 366 L 483 366" stroke-miterlimit="10"/></g><g transform="translate(-70,-54) scale(1,1)"><path fill="none" stroke="#000000" d="M 80 389 L 483 389" stroke-miterlimit="10"/></g><g transform="translate(-70,-54) scale(1,1)"><g><path fill="none" stroke="none"/><text fill="#000000" stroke="none" font-family="Arial" font-size="13px" font-style="normal" font-weight="normal" text-decoration="none" x="249.5" y="345.5">«interface»</text></g></g><g transform="translate(-70,-54) scale(1,1)"><g><path fill="none" stroke="none"/><text fill="#000000" stroke="none" font-family="Arial" font-size="13px" font-style="italic" font-weight="bold" text-decoration="none" x="192.5" y="360.5">DisplayPresentationsInteractor</text></g></g><g transform="translate(-70,-54) scale(1,1)"><g><path fill="none" stroke="none"/><text fill="#000000" stroke="none" font-family="Arial" font-size="13px" font-style="normal" font-weight="normal" text-decoration="none" x="85" y="383.5">+gateway: PresentationsGateway</text></g></g><g transform="translate(-70,-54) scale(1,1)"><g><path fill="none" stroke="none"/><text fill="#000000" stroke="none" font-family="Arial" font-size="13px" font-style="normal" font-weight="normal" text-decoration="none" x="85" y="406.5">+displayPresentations(completionBlock: DisplayPresentationResult)</text></g></g><g transform="translate(-70,-54) scale(1,1)"><g><path fill="none" stroke="none"/><text fill="#000000" stroke="none" font-family="Arial" font-size="13px" font-style="normal" font-weight="normal" text-decoration="none" x="85" y="421.5">+initWithGateway(gateway: PresentationsGateway)</text></g></g><g transform="translate(-70,-54) scale(1,1)"><rect fill="#C0C0C0" stroke="none" x="319" y="71" width="120" height="48" opacity="0.2"/></g><g transform="translate(-70,-54) scale(1,1)"><rect fill="#ffffff" stroke="none" x="312" y="64" width="120" height="48"/></g><g transform="translate(-70,-54) scale(1,1)"><path fill="none" stroke="#000000" d="M 312 64 L 432 64 L 432 112 L 312 112 L 312 64 Z Z" stroke-miterlimit="10"/></g><g transform="translate(-70,-54) scale(1,1)"><g><path fill="none" stroke="none"/><text fill="#000000" stroke="none" font-family="Arial" font-size="13px" font-style="normal" font-weight="normal" text-decoration="none" x="340" y="81.5">«interface»</text></g></g><g transform="translate(-70,-54) scale(1,1)"><g><path fill="none" stroke="none"/><text fill="#000000" stroke="none" font-family="Arial" font-size="13px" font-style="italic" font-weight="bold" text-decoration="none" x="329.5" y="96.5">InteractorBase</text></g></g><g transform="translate(-70,-54) scale(1,1)"><path fill="none" stroke="#000000" d="M 297 327 L 364 113" stroke-miterlimit="10"/></g><g transform="translate(-70,-54) scale(1,1)"><path fill="#FFFFFF" stroke="none" d="M 365.9615989443737 134.9123738919687 L 364 113 L 349.89267174462884 129.88144808644114"/></g><g transform="translate(-70,-54) scale(1,1)"><path fill="none" stroke="#000000" d="M 365.9615989443737 134.9123738919687 L 364 113 L 349.89267174462884 129.88144808644114 L 365.9615989443737 134.9123738919687" stroke-miterlimit="10"/></g></g></svg>