<svg version="1.1" xmlns="http://www.w3.org/2000/svg" xmlns:xlink="http://www.w3.org/1999/xlink" width="222" height="326"><defs/><g><g transform="translate(-264,-390) scale(1,1)"><rect fill="#C0C0C0" stroke="none" x="281" y="623" width="202" height="90" opacity="0.2"/></g><g transform="translate(-264,-390) scale(1,1)"><rect fill="#ffffff" stroke="none" x="274" y="616" width="202" height="90"/></g><g transform="translate(-264,-390) scale(1,1)"><path fill="none" stroke="#000000" d="M 274 616 L 476 616 L 476 706 L 274 706 L 274 616 Z Z" stroke-miterlimit="10"/></g><g transform="translate(-264,-390) scale(1,1)"><path fill="none" stroke="#000000" d="M 274 641 L 476 641" stroke-miterlimit="10"/></g><g transform="translate(-264,-390) scale(1,1)"><path fill="none" stroke="#000000" d="M 274 664 L 476 664" stroke-miterlimit="10"/></g><g transform="translate(-264,-390) scale(1,1)"><g><path fill="none" stroke="none"/><text fill="#000000" stroke="none" font-family="Arial" font-size="13px" font-style="normal" font-weight="bold" text-decoration="none" x="298.5" y="635.5">DisplayPresentationResult</text></g></g><g transform="translate(-264,-390) scale(1,1)"><g><path fill="none" stroke="none"/><text fill="#000000" stroke="none" font-family="Arial" font-size="13px" font-style="normal" font-weight="normal" text-decoration="none" x="279" y="658.5">+succes: PresentationEntity[0..*]</text></g></g><g transform="translate(-264,-390) scale(1,1)"><rect fill="#C0C0C0" stroke="none" x="305" y="425" width="150" height="75" opacity="0.2"/></g><g transform="translate(-264,-390) scale(1,1)"><rect fill="#C0C0C0" stroke="none" x="401" y="407" width="63" height="22" opacity="0.2"/></g><g transform="translate(-264,-390) scale(1,1)"><rect fill="#ffffff" stroke="none" x="298" y="418" width="150" height="75"/></g><g transform="translate(-264,-390) scale(1,1)"><path fill="none" stroke="#000000" d="M 298 418 L 448 418 L 448 493 L 298 493 L 298 418 Z Z" stroke-miterlimit="10"/></g><g transform="translate(-264,-390) scale(1,1)"><path fill="none" stroke="#000000" d="M 298 456 L 448 456" stroke-miterlimit="10"/></g><g transform="translate(-264,-390) scale(1,1)"><g><path fill="none" stroke="none"/><text fill="#000000" stroke="none" font-family="Arial" font-size="13px" font-style="normal" font-weight="normal" text-decoration="none" x="341" y="435.5">«interface»</text></g></g><g transform="translate(-264,-390) scale(1,1)"><g><path fill="none" stroke="none"/><text fill="#000000" stroke="none" font-family="Arial" font-size="13px" font-style="normal" font-weight="bold" text-decoration="none" x="354.5" y="450.5">Result</text></g></g><g transform="translate(-264,-390) scale(1,1)"><g><path fill="none" stroke="none"/><text fill="#000000" stroke="none" font-family="Arial" font-size="13px" font-style="normal" font-weight="normal" text-decoration="none" x="303" y="473.5">+succes: Template</text></g></g><g transform="translate(-264,-390) scale(1,1)"><g><path fill="none" stroke="none"/><text fill="#000000" stroke="none" font-family="Arial" font-size="13px" font-style="normal" font-weight="normal" text-decoration="none" x="303" y="488.5">+error: Error</text></g></g><g transform="translate(-264,-390) scale(1,1)"><rect fill="#ffffff" stroke="none" x="394" y="400" width="63" height="22"/></g><g transform="translate(-264,-390) scale(1,1)"><path fill="none" stroke="#000000" d="M 394 400 L 457 400 L 457 422 L 394 422 L 394 400 Z Z" stroke-miterlimit="10" stroke-dasharray="3"/></g><g transform="translate(-264,-390) scale(1,1)"><g><path fill="none" stroke="none"/><text fill="#000000" stroke="none" font-family="Arial" font-size="13px" font-style="normal" font-weight="normal" text-decoration="none" x="399" y="417.5">Template</text></g></g><g transform="translate(-264,-390) scale(1,1)"><path fill="none" stroke="#000000" d="M 376 615 L 377 494" stroke-miterlimit="10" stroke-dasharray="3"/></g><g transform="translate(-264,-390) scale(1,1)"><path fill="#FFFFFF" stroke="none" d="M 385.25077565048355 514.3942320562797 L 377 494 L 368.4132796284183 514.2550791965932"/></g><g transform="translate(-264,-390) scale(1,1)"><path fill="none" stroke="#000000" d="M 385.25077565048355 514.3942320562797 L 377 494 L 368.4132796284183 514.2550791965932 L 385.25077565048355 514.3942320562797" stroke-miterlimit="10"/></g><g transform="translate(-264,-390) scale(1,1)"><g><path fill="none" stroke="none"/><text fill="#000000" stroke="none" font-family="Arial" font-size="13px" font-style="normal" font-weight="normal" text-decoration="none" x="323.5" y="559.5">+implements</text></g></g></g></svg>