<svg version="1.1" xmlns="http://www.w3.org/2000/svg" xmlns:xlink="http://www.w3.org/1999/xlink" width="996" height="1108"><defs/><g><g transform="translate(-62,-22) scale(1,1)"><rect fill="#C0C0C0" stroke="none" x="79" y="543" width="390.4" height="15" opacity="0.2"/></g><g transform="translate(-62,-22) scale(1,1)"><rect fill="#C0C0C0" stroke="none" x="79" y="557" width="976" height="313" opacity="0.2"/></g><g transform="translate(-62,-22) scale(1,1)"><rect fill="#ffffff" stroke="none" x="72" y="551" width="976" height="312"/></g><g transform="translate(-62,-22) scale(1,1)"><path fill="none" stroke="#000000" d="M 72 551 L 1048 551 L 1048 863 L 72 863 L 72 551 Z Z" stroke-miterlimit="10"/></g><g transform="translate(-62,-22) scale(1,1)"><rect fill="#ffffff" stroke="none" x="72" y="536" width="390.4" height="15"/></g><g transform="translate(-62,-22) scale(1,1)"><path fill="none" stroke="#000000" d="M 72 536 L 462.4 536 L 462.4 551 L 72 551 L 72 536 Z Z" stroke-miterlimit="10"/></g><g transform="translate(-62,-22) scale(1,1)"><rect fill="#ffffff" stroke="none" x="72" y="550" width="976" height="313"/></g><g transform="translate(-62,-22) scale(1,1)"><path fill="none" stroke="#000000" d="M 72 550 L 1048 550 L 1048 863 L 72 863 L 72 550 Z Z" stroke-miterlimit="10"/></g><g transform="translate(-62,-22) scale(1,1)"><g><path fill="none" stroke="none"/><text fill="#000000" stroke="none" font-family="Arial" font-size="13px" font-style="normal" font-weight="bold" text-decoration="none" x="523" y="570.5">pkg.topic.list</text></g></g><g transform="translate(-62,-22) scale(1,1)"><rect fill="#C0C0C0" stroke="none" x="79" y="263" width="176" height="15" opacity="0.2"/></g><g transform="translate(-62,-22) scale(1,1)"><rect fill="#C0C0C0" stroke="none" x="79" y="277" width="440" height="194" opacity="0.2"/></g><g transform="translate(-62,-22) scale(1,1)"><rect fill="#ffffff" stroke="none" x="72" y="271" width="440" height="193"/></g><g transform="translate(-62,-22) scale(1,1)"><path fill="none" stroke="#000000" d="M 72 271 L 512 271 L 512 464 L 72 464 L 72 271 Z Z" stroke-miterlimit="10"/></g><g transform="translate(-62,-22) scale(1,1)"><rect fill="#ffffff" stroke="none" x="72" y="256" width="176" height="15"/></g><g transform="translate(-62,-22) scale(1,1)"><path fill="none" stroke="#000000" d="M 72 256 L 248 256 L 248 271 L 72 271 L 72 256 Z Z" stroke-miterlimit="10"/></g><g transform="translate(-62,-22) scale(1,1)"><rect fill="#ffffff" stroke="none" x="72" y="270" width="440" height="194"/></g><g transform="translate(-62,-22) scale(1,1)"><path fill="none" stroke="#000000" d="M 72 270 L 512 270 L 512 464 L 72 464 L 72 270 Z Z" stroke-miterlimit="10"/></g><g transform="translate(-62,-22) scale(1,1)"><g><path fill="none" stroke="none"/><text fill="#000000" stroke="none" font-family="Arial" font-size="13px" font-style="normal" font-weight="bold" text-decoration="none" x="248.5" y="290.5">pkg.application</text></g></g><g transform="translate(-62,-22) scale(1,1)"><rect fill="#C0C0C0" stroke="none" x="79" y="39" width="355.2" height="15" opacity="0.2"/></g><g transform="translate(-62,-22) scale(1,1)"><rect fill="#C0C0C0" stroke="none" x="79" y="53" width="888" height="122" opacity="0.2"/></g><g transform="translate(-62,-22) scale(1,1)"><rect fill="#ffffff" stroke="none" x="72" y="47" width="888" height="121"/></g><g transform="translate(-62,-22) scale(1,1)"><path fill="none" stroke="#000000" d="M 72 47 L 960 47 L 960 168 L 72 168 L 72 47 Z Z" stroke-miterlimit="10"/></g><g transform="translate(-62,-22) scale(1,1)"><rect fill="#ffffff" stroke="none" x="72" y="32" width="355.2" height="15"/></g><g transform="translate(-62,-22) scale(1,1)"><path fill="none" stroke="#000000" d="M 72 32 L 427.2 32 L 427.2 47 L 72 47 L 72 32 Z Z" stroke-miterlimit="10"/></g><g transform="translate(-62,-22) scale(1,1)"><rect fill="#ffffff" stroke="none" x="72" y="46" width="888" height="122"/></g><g transform="translate(-62,-22) scale(1,1)"><path fill="none" stroke="#000000" d="M 72 46 L 960 46 L 960 168 L 72 168 L 72 46 Z Z" stroke-miterlimit="10"/></g><g transform="translate(-62,-22) scale(1,1)"><g><path fill="none" stroke="none"/><text fill="#000000" stroke="none" font-family="Arial" font-size="13px" font-style="normal" font-weight="bold" text-decoration="none" x="501.5" y="66.5">UIKit</text></g></g><g transform="translate(-62,-22) scale(1,1)"><path fill="none" stroke="#000000" d="M 775 110 L 237 109" stroke-miterlimit="10"/></g><g transform="translate(-62,-22) scale(1,1)"><path fill="#FFFFFF" stroke="none" d="M 257.34096334217645 100.61875842656744 L 237 109 L 257.3096658664567 117.45680036378317"/></g><g transform="translate(-62,-22) scale(1,1)"><path fill="none" stroke="#000000" d="M 257.34096334217645 100.61875842656744 L 237 109 L 257.3096658664567 117.45680036378317 L 257.34096334217645 100.61875842656744" stroke-miterlimit="10"/></g><g transform="translate(-62,-22) scale(1,1)"><g><path fill="none" stroke="none"/><text fill="#000000" stroke="none" font-family="Arial" font-size="13px" font-style="normal" font-weight="normal" text-decoration="none" x="467.5" y="130.5">+subclasses</text></g></g><g transform="translate(-62,-22) scale(1,1)"><rect fill="#C0C0C0" stroke="none" x="95" y="94" width="148" height="44" opacity="0.2"/></g><g transform="translate(-62,-22) scale(1,1)"><rect fill="#ffffff" stroke="none" x="88" y="87" width="148" height="44"/></g><g transform="translate(-62,-22) scale(1,1)"><path fill="none" stroke="#000000" d="M 88 87 L 236 87 L 236 131 L 88 131 L 88 87 Z Z" stroke-miterlimit="10"/></g><g transform="translate(-62,-22) scale(1,1)"><path fill="none" stroke="#000000" d="M 88 112 L 236 112" stroke-miterlimit="10"/></g><g transform="translate(-62,-22) scale(1,1)"><path fill="none" stroke="#000000" d="M 88 122 L 236 122" stroke-miterlimit="10"/></g><g transform="translate(-62,-22) scale(1,1)"><g><path fill="none" stroke="none"/><text fill="#000000" stroke="none" font-family="Arial" font-size="13px" font-style="normal" font-weight="bold" text-decoration="none" x="114" y="106.5">UIViewController</text></g></g><g transform="translate(-62,-22) scale(1,1)"><rect fill="#C0C0C0" stroke="none" x="783" y="95" width="148" height="44" opacity="0.2"/></g><g transform="translate(-62,-22) scale(1,1)"><rect fill="#ffffff" stroke="none" x="776" y="88" width="148" height="44"/></g><g transform="translate(-62,-22) scale(1,1)"><path fill="none" stroke="#000000" d="M 776 88 L 924 88 L 924 132 L 776 132 L 776 88 Z Z" stroke-miterlimit="10"/></g><g transform="translate(-62,-22) scale(1,1)"><path fill="none" stroke="#000000" d="M 776 113 L 924 113" stroke-miterlimit="10"/></g><g transform="translate(-62,-22) scale(1,1)"><path fill="none" stroke="#000000" d="M 776 123 L 924 123" stroke-miterlimit="10"/></g><g transform="translate(-62,-22) scale(1,1)"><g><path fill="none" stroke="none"/><text fill="#000000" stroke="none" font-family="Arial" font-size="13px" font-style="normal" font-weight="bold" text-decoration="none" x="786" y="107.5">UITableViewController</text></g></g><g transform="translate(-62,-22) scale(1,1)"><rect fill="#C0C0C0" stroke="none" x="95" y="343" width="319" height="85" opacity="0.2"/></g><g transform="translate(-62,-22) scale(1,1)"><rect fill="#ffffff" stroke="none" x="88" y="336" width="319" height="85"/></g><g transform="translate(-62,-22) scale(1,1)"><path fill="none" stroke="#000000" d="M 88 336 L 407 336 L 407 421 L 88 421 L 88 336 Z Z" stroke-miterlimit="10"/></g><g transform="translate(-62,-22) scale(1,1)"><path fill="none" stroke="#000000" d="M 88 361 L 407 361" stroke-miterlimit="10"/></g><g transform="translate(-62,-22) scale(1,1)"><path fill="none" stroke="#000000" d="M 88 399 L 407 399" stroke-miterlimit="10"/></g><g transform="translate(-62,-22) scale(1,1)"><g><path fill="none" stroke="none"/><text fill="#000000" stroke="none" font-family="Arial" font-size="13px" font-style="normal" font-weight="bold" text-decoration="none" x="182" y="355.5">ListFlowViewController</text></g></g><g transform="translate(-62,-22) scale(1,1)"><g><path fill="none" stroke="none"/><text fill="#000000" stroke="none" font-family="Arial" font-size="13px" font-style="normal" font-weight="normal" text-decoration="none" x="93" y="378.5">-embededNavigationController: UINavigationController</text></g></g><g transform="translate(-62,-22) scale(1,1)"><g><path fill="none" stroke="none"/><text fill="#000000" stroke="none" font-family="Arial" font-size="13px" font-style="normal" font-weight="normal" text-decoration="none" x="93" y="393.5">+listViewController: UIViewController</text></g></g><g transform="translate(-62,-22) scale(1,1)"><rect fill="#C0C0C0" stroke="none" x="703" y="743" width="310" height="72" opacity="0.2"/></g><g transform="translate(-62,-22) scale(1,1)"><rect fill="#ffffff" stroke="none" x="696" y="736" width="310" height="72"/></g><g transform="translate(-62,-22) scale(1,1)"><path fill="none" stroke="#000000" d="M 696 736 L 1006 736 L 1006 808 L 696 808 L 696 736 Z Z" stroke-miterlimit="10"/></g><g transform="translate(-62,-22) scale(1,1)"><path fill="none" stroke="#000000" d="M 696 761 L 1006 761" stroke-miterlimit="10"/></g><g transform="translate(-62,-22) scale(1,1)"><path fill="none" stroke="#000000" d="M 696 784 L 1006 784" stroke-miterlimit="10"/></g><g transform="translate(-62,-22) scale(1,1)"><g><path fill="none" stroke="none"/><text fill="#000000" stroke="none" font-family="Arial" font-size="13px" font-style="normal" font-weight="bold" text-decoration="none" x="783" y="755.5">TopicListViewController</text></g></g><g transform="translate(-62,-22) scale(1,1)"><g><path fill="none" stroke="none"/><text fill="#000000" stroke="none" font-family="Arial" font-size="13px" font-style="normal" font-weight="normal" text-decoration="none" x="701" y="778.5">+delegate: TopicListDelegate</text></g></g><g transform="translate(-62,-22) scale(1,1)"><g><path fill="none" stroke="none"/><text fill="#000000" stroke="none" font-family="Arial" font-size="13px" font-style="normal" font-weight="normal" text-decoration="none" x="701" y="801.5">+itemAtPosition(indexPath: IndexPath): Any</text></g></g><g transform="translate(-62,-22) scale(1,1)"><rect fill="#C0C0C0" stroke="none" x="95" y="743" width="310" height="72" opacity="0.2"/></g><g transform="translate(-62,-22) scale(1,1)"><rect fill="#ffffff" stroke="none" x="88" y="736" width="310" height="72"/></g><g transform="translate(-62,-22) scale(1,1)"><path fill="none" stroke="#000000" d="M 88 736 L 398 736 L 398 808 L 88 808 L 88 736 Z Z" stroke-miterlimit="10"/></g><g transform="translate(-62,-22) scale(1,1)"><path fill="none" stroke="#000000" d="M 88 761 L 398 761" stroke-miterlimit="10"/></g><g transform="translate(-62,-22) scale(1,1)"><path fill="none" stroke="#000000" d="M 88 771 L 398 771" stroke-miterlimit="10"/></g><g transform="translate(-62,-22) scale(1,1)"><g><path fill="none" stroke="none"/><text fill="#000000" stroke="none" font-family="Arial" font-size="13px" font-style="normal" font-weight="bold" text-decoration="none" x="161.5" y="755.5">TopicListFlowViewController</text></g></g><g transform="translate(-62,-22) scale(1,1)"><g><path fill="none" stroke="none"/><text fill="#000000" stroke="none" font-family="Arial" font-size="13px" font-style="normal" font-weight="normal" text-decoration="none" x="93" y="788.5">-newListViewController(): TopicListViewController</text></g></g><g transform="translate(-62,-22) scale(1,1)"><g><path fill="none" stroke="none"/><text fill="#000000" stroke="none" font-family="Arial" font-size="13px" font-style="normal" font-weight="normal" text-decoration="none" x="93" y="803.5">-embed(listViewController: TopicListViewController)</text></g></g><g transform="translate(-62,-22) scale(1,1)"><path fill="none" stroke="#000000" d="M 243 735 L 247 422" stroke-miterlimit="10"/></g><g transform="translate(-62,-22) scale(1,1)"><path fill="#FFFFFF" stroke="none" d="M 255.15862044050579 442.43127290473507 L 247 422 L 238.3219242193977 442.21610745781993"/></g><g transform="translate(-62,-22) scale(1,1)"><path fill="none" stroke="#000000" d="M 255.15862044050579 442.43127290473507 L 247 422 L 238.3219242193977 442.21610745781993 L 255.15862044050579 442.43127290473507" stroke-miterlimit="10"/></g><g transform="translate(-62,-22) scale(1,1)"><g><path fill="none" stroke="none"/><text fill="#000000" stroke="none" font-family="Arial" font-size="13px" font-style="normal" font-weight="normal" text-decoration="none" x="192.5" y="583.5">+subclasses</text></g></g><g transform="translate(-62,-22) scale(1,1)"><path fill="none" stroke="#000000" d="M 233 335 L 169 132" stroke-miterlimit="10"/></g><g transform="translate(-62,-22) scale(1,1)"><path fill="#FFFFFF" stroke="none" d="M 183.14090044597376 148.85333600736243 L 169 132 L 167.08201842101053 153.91623477385332"/></g><g transform="translate(-62,-22) scale(1,1)"><path fill="none" stroke="#000000" d="M 183.14090044597376 148.85333600736243 L 169 132 L 167.08201842101053 153.91623477385332 L 183.14090044597376 148.85333600736243" stroke-miterlimit="10"/></g><g transform="translate(-62,-22) scale(1,1)"><g><path fill="none" stroke="none"/><text fill="#000000" stroke="none" font-family="Arial" font-size="13px" font-style="normal" font-weight="normal" text-decoration="none" x="148.5" y="243.5">+subclasses</text></g></g><g transform="translate(-62,-22) scale(1,1)"><path fill="none" stroke="#000000" d="M 851 735 L 850 133" stroke-miterlimit="10"/></g><g transform="translate(-62,-22) scale(1,1)"><path fill="#FFFFFF" stroke="none" d="M 858.4527868893292 153.31133658338572 L 850 133 L 841.614739096295 153.33930676244393"/></g><g transform="translate(-62,-22) scale(1,1)"><path fill="none" stroke="#000000" d="M 858.4527868893292 153.31133658338572 L 850 133 L 841.614739096295 153.33930676244393 L 858.4527868893292 153.31133658338572" stroke-miterlimit="10"/></g><g transform="translate(-62,-22) scale(1,1)"><g><path fill="none" stroke="none"/><text fill="#000000" stroke="none" font-family="Arial" font-size="13px" font-style="normal" font-weight="normal" text-decoration="none" x="797.5" y="439.5">+subclasses</text></g></g><g transform="translate(-62,-22) scale(1,1)"><rect fill="#C0C0C0" stroke="none" x="463" y="607" width="175" height="60" opacity="0.2"/></g><g transform="translate(-62,-22) scale(1,1)"><rect fill="#ffffff" stroke="none" x="456" y="600" width="175" height="60"/></g><g transform="translate(-62,-22) scale(1,1)"><path fill="none" stroke="#000000" d="M 456 600 L 631 600 L 631 660 L 456 660 L 456 600 Z Z" stroke-miterlimit="10"/></g><g transform="translate(-62,-22) scale(1,1)"><path fill="none" stroke="#000000" d="M 456 638 L 631 638" stroke-miterlimit="10"/></g><g transform="translate(-62,-22) scale(1,1)"><g><path fill="none" stroke="none"/><text fill="#000000" stroke="none" font-family="Arial" font-size="13px" font-style="normal" font-weight="normal" text-decoration="none" x="511.5" y="617.5">«interface»</text></g></g><g transform="translate(-62,-22) scale(1,1)"><g><path fill="none" stroke="none"/><text fill="#000000" stroke="none" font-family="Arial" font-size="13px" font-style="normal" font-weight="bold" text-decoration="none" x="491.5" y="632.5">TopicListDelegate</text></g></g><g transform="translate(-62,-22) scale(1,1)"><g><path fill="none" stroke="none"/><text fill="#000000" stroke="none" font-family="Arial" font-size="13px" font-style="normal" font-weight="normal" text-decoration="none" x="461" y="655.5">+didSelect(item: Any)</text></g></g><g transform="translate(-62,-22) scale(1,1)"><path fill="none" stroke="#000000" d="M 771 735 L 610 661" stroke-miterlimit="10"/></g><g transform="translate(-62,-22) scale(1,1)"><path fill="none" stroke="#000000" d="M 620.9920036846494 661.4193506845754 L 610 661 L 617.4759946314846 669.0690460570016" stroke-miterlimit="10"/></g><g transform="translate(-62,-22) scale(1,1)"><g><path fill="none" stroke="none"/><text fill="#000000" stroke="none" font-family="Arial" font-size="13px" font-style="normal" font-weight="normal" text-decoration="none" x="664.5" y="717.5">+uses</text></g></g><g transform="translate(-62,-22) scale(1,1)"><path fill="none" stroke="#000000" d="M 321 735 L 478 661" stroke-miterlimit="10" stroke-dasharray="3"/></g><g transform="translate(-62,-22) scale(1,1)"><path fill="#FFFFFF" stroke="none" d="M 463.20402646918774 677.2812520180576 L 478 661 L 456.0250830739303 662.0502504902817"/></g><g transform="translate(-62,-22) scale(1,1)"><path fill="none" stroke="#000000" d="M 463.20402646918774 677.2812520180576 L 478 661 L 456.0250830739303 662.0502504902817 L 463.20402646918774 677.2812520180576" stroke-miterlimit="10"/></g><g transform="translate(-62,-22) scale(1,1)"><g><path fill="none" stroke="none"/><text fill="#000000" stroke="none" font-family="Arial" font-size="13px" font-style="normal" font-weight="normal" text-decoration="none" x="354.5" y="690.5">+implements</text></g></g><g transform="translate(-62,-22) scale(1,1)"><rect fill="#C0C0C0" stroke="none" x="79" y="983" width="220.8" height="15" opacity="0.2"/></g><g transform="translate(-62,-22) scale(1,1)"><rect fill="#C0C0C0" stroke="none" x="79" y="997" width="552" height="130" opacity="0.2"/></g><g transform="translate(-62,-22) scale(1,1)"><rect fill="#ffffff" stroke="none" x="72" y="991" width="552" height="129"/></g><g transform="translate(-62,-22) scale(1,1)"><path fill="none" stroke="#000000" d="M 72 991 L 624 991 L 624 1120 L 72 1120 L 72 991 Z Z" stroke-miterlimit="10"/></g><g transform="translate(-62,-22) scale(1,1)"><rect fill="#ffffff" stroke="none" x="72" y="976" width="220.8" height="15"/></g><g transform="translate(-62,-22) scale(1,1)"><path fill="none" stroke="#000000" d="M 72 976 L 292.8 976 L 292.8 991 L 72 991 L 72 976 Z Z" stroke-miterlimit="10"/></g><g transform="translate(-62,-22) scale(1,1)"><rect fill="#ffffff" stroke="none" x="72" y="990" width="552" height="130"/></g><g transform="translate(-62,-22) scale(1,1)"><path fill="none" stroke="#000000" d="M 72 990 L 624 990 L 624 1120 L 72 1120 L 72 990 Z Z" stroke-miterlimit="10"/></g><g transform="translate(-62,-22) scale(1,1)"><g><path fill="none" stroke="none"/><text fill="#000000" stroke="none" font-family="Arial" font-size="13px" font-style="normal" font-weight="bold" text-decoration="none" x="304" y="1010.5">pkg.topic.detail</text></g></g><g transform="translate(-62,-22) scale(1,1)"><rect fill="#C0C0C0" stroke="none" x="95" y="1063" width="208" height="44" opacity="0.2"/></g><g transform="translate(-62,-22) scale(1,1)"><rect fill="#ffffff" stroke="none" x="88" y="1056" width="208" height="44"/></g><g transform="translate(-62,-22) scale(1,1)"><path fill="none" stroke="#000000" d="M 88 1056 L 296 1056 L 296 1100 L 88 1100 L 88 1056 Z Z" stroke-miterlimit="10"/></g><g transform="translate(-62,-22) scale(1,1)"><path fill="none" stroke="#000000" d="M 88 1081 L 296 1081" stroke-miterlimit="10"/></g><g transform="translate(-62,-22) scale(1,1)"><path fill="none" stroke="#000000" d="M 88 1091 L 296 1091" stroke-miterlimit="10"/></g><g transform="translate(-62,-22) scale(1,1)"><g><path fill="none" stroke="none"/><text fill="#000000" stroke="none" font-family="Arial" font-size="13px" font-style="normal" font-weight="bold" text-decoration="none" x="101" y="1075.5">TopicDetailsFlowViewController</text></g></g><g transform="translate(-62,-22) scale(1,1)"><path fill="none" stroke="#000000" d="M 695 772 L 399 772" stroke-miterlimit="10"/></g><g transform="translate(-62,-22) scale(1,1)"><path fill="#000000" stroke="none" d="M 409.16267485762415 767.790482243984 L 399 772 L 409.16267485762415 776.209517756016 L 421 772"/></g><g transform="translate(-62,-22) scale(1,1)"><path fill="none" stroke="#000000" d="M 409.16267485762415 767.790482243984 L 399 772 L 409.16267485762415 776.209517756016 L 421 772 L 409.16267485762415 767.790482243984" stroke-miterlimit="10"/></g><g transform="translate(-62,-22) scale(1,1)"><g><path fill="none" stroke="none"/><text fill="#000000" stroke="none" font-family="Arial" font-size="13px" font-style="normal" font-weight="normal" text-decoration="none" x="525.5" y="793.5">+has a</text></g></g><g transform="translate(-62,-22) scale(1,1)"><g><path fill="none" stroke="none"/><text fill="#000000" stroke="none" font-family="Arial" font-size="13px" font-style="normal" font-weight="normal" text-decoration="none" x="661.5" y="765.5">1..1</text></g></g><g transform="translate(-62,-22) scale(1,1)"><g><path fill="none" stroke="none"/><text fill="#000000" stroke="none" font-family="Arial" font-size="13px" font-style="normal" font-weight="normal" text-decoration="none" x="408.5" y="765.5">0..1</text></g></g><g transform="translate(-62,-22) scale(1,1)"><path fill="none" stroke="#000000" d="M 196 1055 L 237 809" stroke-miterlimit="10"/></g></g></svg>