<svg version="1.1" xmlns="http://www.w3.org/2000/svg" xmlns:xlink="http://www.w3.org/1999/xlink" width="534" height="182"><defs/><g><g transform="translate(-94,-350) scale(1,1)"><rect fill="#C0C0C0" stroke="none" x="111" y="367" width="118" height="72" opacity="0.2"/></g><g transform="translate(-94,-350) scale(1,1)"><rect fill="#ffffff" stroke="none" x="104" y="360" width="118" height="72"/></g><g transform="translate(-94,-350) scale(1,1)"><path fill="none" stroke="#000000" d="M 104 360 L 222 360 L 222 432 L 104 432 L 104 360 Z Z" stroke-miterlimit="10"/></g><g transform="translate(-94,-350) scale(1,1)"><path fill="none" stroke="#000000" d="M 104 385 L 222 385" stroke-miterlimit="10"/></g><g transform="translate(-94,-350) scale(1,1)"><path fill="none" stroke="#000000" d="M 104 423 L 222 423" stroke-miterlimit="10"/></g><g transform="translate(-94,-350) scale(1,1)"><g><path fill="none" stroke="none"/><text fill="#000000" stroke="none" font-family="Arial" font-size="13px" font-style="normal" font-weight="bold" text-decoration="none" x="132.5" y="379.5">UserEntity</text></g></g><g transform="translate(-94,-350) scale(1,1)"><g><path fill="none" stroke="none"/><text fill="#000000" stroke="none" font-family="Arial" font-size="13px" font-style="normal" font-weight="normal" text-decoration="none" x="109" y="402.5">+userId: String</text></g></g><g transform="translate(-94,-350) scale(1,1)"><g><path fill="none" stroke="none"/><text fill="#000000" stroke="none" font-family="Arial" font-size="13px" font-style="normal" font-weight="normal" text-decoration="none" x="109" y="417.5">+userName: String</text></g></g><g transform="translate(-94,-350) scale(1,1)"><rect fill="#C0C0C0" stroke="none" x="239" y="367" width="386" height="162" opacity="0.2"/></g><g transform="translate(-94,-350) scale(1,1)"><rect fill="#ffffff" stroke="none" x="232" y="360" width="386" height="162"/></g><g transform="translate(-94,-350) scale(1,1)"><path fill="none" stroke="#000000" d="M 232 360 L 618 360 L 618 522 L 232 522 L 232 360 Z Z" stroke-miterlimit="10"/></g><g transform="translate(-94,-350) scale(1,1)"><path fill="none" stroke="#000000" d="M 232 385 L 618 385" stroke-miterlimit="10"/></g><g transform="translate(-94,-350) scale(1,1)"><path fill="none" stroke="#000000" d="M 232 513 L 618 513" stroke-miterlimit="10"/></g><g transform="translate(-94,-350) scale(1,1)"><g><path fill="none" stroke="none"/><text fill="#000000" stroke="none" font-family="Arial" font-size="13px" font-style="normal" font-weight="bold" text-decoration="none" x="371.5" y="379.5">PresentationEntity</text></g></g><g transform="translate(-94,-350) scale(1,1)"><g><path fill="none" stroke="none"/><text fill="#000000" stroke="none" font-family="Arial" font-size="13px" font-style="normal" font-weight="normal" text-decoration="none" x="237" y="402.5">+presentationId: String</text></g></g><g transform="translate(-94,-350) scale(1,1)"><g><path fill="none" stroke="none"/><text fill="#000000" stroke="none" font-family="Arial" font-size="13px" font-style="normal" font-weight="normal" text-decoration="none" x="237" y="417.5">+presentationTitle: String</text></g></g><g transform="translate(-94,-350) scale(1,1)"><g><path fill="none" stroke="none"/><text fill="#000000" stroke="none" font-family="Arial" font-size="13px" font-style="normal" font-weight="normal" text-decoration="none" x="237" y="432.5">+presentationSubtitle: String</text></g></g><g transform="translate(-94,-350) scale(1,1)"><g><path fill="none" stroke="none"/><text fill="#000000" stroke="none" font-family="Arial" font-size="13px" font-style="normal" font-weight="normal" text-decoration="none" x="237" y="447.5">+presentationDescription: String</text></g></g><g transform="translate(-94,-350) scale(1,1)"><g><path fill="none" stroke="none"/><text fill="#000000" stroke="none" font-family="Arial" font-size="13px" font-style="normal" font-weight="normal" text-decoration="none" x="237" y="462.5">+isFavorite: Boolean</text></g></g><g transform="translate(-94,-350) scale(1,1)"><g><path fill="none" stroke="none"/><text fill="#000000" stroke="none" font-family="Arial" font-size="13px" font-style="normal" font-weight="normal" text-decoration="none" x="237" y="477.5">+mediaContent: URL</text></g></g><g transform="translate(-94,-350) scale(1,1)"><g><path fill="none" stroke="none"/><text fill="#000000" stroke="none" font-family="Arial" font-size="13px" font-style="normal" font-weight="normal" text-decoration="none" x="237" y="492.5">+thumbnailImage: URL</text></g></g><g transform="translate(-94,-350) scale(1,1)"><g><path fill="none" stroke="none"/><text fill="#000000" stroke="none" font-family="Arial" font-size="13px" font-style="normal" font-weight="normal" text-decoration="none" x="237" y="507.5">+relatedPresentations: PresentationEntity[0..*] = nil {ordered}</text></g></g></g></svg>